<svg width="15" height="14" viewBox="0 0 15 14" fill="none" xmlns="http://www.w3.org/2000/svg">
<path id="Vector" d="M13.9185 5.29984L9.76153 4.70674L7.90326 1.00828C7.8525 0.907016 7.769 0.825043 7.66585 0.775216C7.40717 0.649844 7.09282 0.75432 6.96348 1.00828L5.10521 4.70674L0.948251 5.29984C0.833644 5.31591 0.728861 5.36895 0.648636 5.44932C0.551649 5.54718 0.498204 5.67885 0.500046 5.81537C0.501888 5.9519 0.558866 6.08213 0.658459 6.17744L3.66607 9.05616L2.95551 13.1211C2.93885 13.2156 2.94951 13.3129 2.98628 13.4018C3.02305 13.4907 3.08446 13.5677 3.16355 13.6241C3.24264 13.6805 3.33625 13.714 3.43375 13.7209C3.53125 13.7277 3.62875 13.7076 3.71519 13.6628L7.43337 11.7436L11.1515 13.6628C11.2531 13.7158 11.3709 13.7335 11.4839 13.7142C11.7688 13.666 11.9603 13.4008 11.9112 13.1211L11.2007 9.05616L14.2083 6.17744C14.2901 6.09868 14.3442 5.99581 14.3605 5.8833C14.4047 5.60202 14.205 5.34163 13.9185 5.29984Z" fill="#EEA651"/>
</svg>
