<svg width="14" height="10" viewBox="0 0 14 10" fill="none" xmlns="http://www.w3.org/2000/svg">
<g id="Group 41">
<g id="svgviewer-output (7)">
<path id="Path 51" fill-rule="evenodd" clip-rule="evenodd" d="M0.5 1.19697C0.5 0.885343 0.623794 0.586478 0.84415 0.366123C1.0645 0.145768 1.36337 0.0219727 1.675 0.0219727H11.8623C12.1739 0.0219727 12.4727 0.145768 12.6931 0.366123C12.9135 0.586478 13.0373 0.885343 13.0373 1.19697V8.24697C13.0373 8.5586 12.9135 8.85747 12.6931 9.07782C12.4727 9.29818 12.1739 9.42197 11.8623 9.42197H1.675C1.36384 9.42198 1.06538 9.29855 0.845107 9.07878C0.624829 8.85901 0.500718 8.56084 0.5 8.24968L0.5 1.19697ZM1.675 0.805608C1.5712 0.805608 1.47166 0.84684 1.39826 0.920235C1.32487 0.99363 1.28363 1.09318 1.28363 1.19697V8.24697C1.28363 8.29837 1.29376 8.34926 1.31343 8.39674C1.33309 8.44422 1.36192 8.48737 1.39826 8.52371C1.4346 8.56005 1.47775 8.58888 1.52523 8.60855C1.57271 8.62821 1.62361 8.63834 1.675 8.63834H11.8623C11.965 8.63739 12.0632 8.59611 12.1357 8.5234C12.2082 8.4507 12.2493 8.35239 12.25 8.24968V1.19968C12.25 1.09589 12.2088 0.996342 12.1354 0.922947C12.062 0.849551 11.9624 0.80832 11.8586 0.80832L1.675 0.805608Z" fill="#122D4D"/>
<path id="Path 52" fill-rule="evenodd" clip-rule="evenodd" d="M2.06738 1.98162C2.06726 1.93015 2.0773 1.87916 2.09692 1.83158C2.11653 1.78399 2.14534 1.74074 2.18169 1.7043C2.21805 1.66786 2.26123 1.63896 2.30877 1.61923C2.35631 1.59951 2.40728 1.58936 2.45875 1.58936H4.80875C4.91267 1.58936 5.01233 1.63064 5.08581 1.70412C5.15929 1.7776 5.20057 1.87725 5.20057 1.98117C5.20057 2.08509 5.15929 2.18475 5.08581 2.25823C5.01233 2.33171 4.91267 2.37299 4.80875 2.37299H2.85102V4.33163C2.85102 4.43554 2.80974 4.5352 2.73626 4.60868C2.66278 4.68216 2.56312 4.72344 2.4592 4.72344C2.35529 4.72344 2.25563 4.68216 2.18215 4.60868C2.10867 4.5352 2.06738 4.43554 2.06738 4.33163V1.98162ZM11.4674 7.46707C11.4674 7.51854 11.4572 7.5695 11.4375 7.61705C11.4178 7.66459 11.3889 7.70777 11.3524 7.74413C11.316 7.78048 11.2727 7.80929 11.2252 7.8289C11.1776 7.84852 11.1266 7.85855 11.0751 7.85843H8.72512C8.6212 7.85843 8.52154 7.81715 8.44806 7.74367C8.37458 7.67019 8.3333 7.57053 8.3333 7.46661C8.3333 7.3627 8.37458 7.26304 8.44806 7.18956C8.52154 7.11608 8.6212 7.0748 8.72512 7.0748H10.6838V5.11616C10.6838 5.01225 10.725 4.91259 10.7985 4.83911C10.872 4.76563 10.9717 4.72434 11.0756 4.72434C11.1795 4.72434 11.2791 4.76563 11.3526 4.83911C11.4261 4.91259 11.4674 5.01225 11.4674 5.11616V7.46707Z" fill="#122D4D"/>
</g>
</g>
</svg>
