<svg width="11" height="14" viewBox="0 0 11 14" fill="none" xmlns="http://www.w3.org/2000/svg">
<g id="Group 10">
<g id="Group 14">
<path id="Vector" d="M9.6753 5.54359C9.6753 4.38886 9.21659 3.28143 8.40008 2.46492C7.58357 1.64841 6.47614 1.1897 5.32142 1.1897C4.1667 1.1897 3.05927 1.64841 2.24275 2.46492C1.42624 3.28143 0.96753 4.38886 0.96753 5.54359C0.96753 7.32965 2.39657 9.65753 5.32142 12.4459C8.24626 9.65753 9.6753 7.32965 9.6753 5.54359ZM5.32142 13.7676C1.77348 10.5428 0 7.80083 0 5.54359C0 4.13226 0.560648 2.77873 1.55861 1.78078C2.55657 0.782816 3.91009 0.222168 5.32142 0.222168C6.73275 0.222168 8.08627 0.782816 9.08423 1.78078C10.0822 2.77873 10.6428 4.13226 10.6428 5.54359C10.6428 7.80083 8.86935 10.5428 5.32142 13.7676Z" fill="#B9B9B9"/>
<path id="Vector_2" d="M5.32166 6.99512C5.70657 6.99512 6.07571 6.84222 6.34788 6.57005C6.62005 6.29788 6.77295 5.92873 6.77295 5.54383C6.77295 5.15892 6.62005 4.78978 6.34788 4.5176C6.07571 4.24543 5.70657 4.09253 5.32166 4.09253C4.93675 4.09253 4.56761 4.24543 4.29544 4.5176C4.02327 4.78978 3.87036 5.15892 3.87036 5.54383C3.87036 5.92873 4.02327 6.29788 4.29544 6.57005C4.56761 6.84222 4.93675 6.99512 5.32166 6.99512ZM5.32166 7.96265C4.68015 7.96265 4.06491 7.70781 3.61129 7.25419C3.15767 6.80058 2.90283 6.18534 2.90283 5.54383C2.90283 4.90231 3.15767 4.28708 3.61129 3.83346C4.06491 3.37984 4.68015 3.125 5.32166 3.125C5.96317 3.125 6.57841 3.37984 7.03203 3.83346C7.48564 4.28708 7.74048 4.90231 7.74048 5.54383C7.74048 6.18534 7.48564 6.80058 7.03203 7.25419C6.57841 7.70781 5.96317 7.96265 5.32166 7.96265Z" fill="#B9B9B9"/>
</g>
</g>
</svg>
