<svg width="9" height="11" viewBox="0 0 9 11" fill="none" xmlns="http://www.w3.org/2000/svg">
<path id="Vector" d="M4.5 0.222168C3.43952 0.223397 2.42283 0.637693 1.67296 1.37418C0.923084 2.11066 0.501255 3.10919 0.500004 4.15074C0.498734 5.00189 0.781815 5.82995 1.30582 6.50788C1.30582 6.50788 1.41491 6.64895 1.43273 6.66931L4.5 10.2222L7.56872 6.66753C7.58472 6.6486 7.69418 6.50788 7.69418 6.50788L7.69454 6.50681C8.21829 5.82917 8.50124 5.0015 8.5 4.15074C8.49874 3.10919 8.07692 2.11066 7.32704 1.37418C6.57717 0.637693 5.56048 0.223397 4.5 0.222168ZM4.5 5.57931C4.21232 5.57931 3.9311 5.49553 3.6919 5.33855C3.4527 5.18158 3.26627 4.95847 3.15618 4.69743C3.04609 4.43639 3.01728 4.14915 3.0734 3.87204C3.12953 3.59492 3.26806 3.34038 3.47148 3.14059C3.6749 2.9408 3.93408 2.80474 4.21623 2.74962C4.49839 2.6945 4.79085 2.72279 5.05663 2.83091C5.32241 2.93904 5.54958 3.12214 5.70941 3.35707C5.86924 3.592 5.95454 3.86819 5.95454 4.15074C5.95406 4.52948 5.80066 4.89256 5.52799 5.16037C5.25531 5.42818 4.88562 5.57884 4.5 5.57931Z" fill="#415770"/>
</svg>
