<svg width="20" height="21" viewBox="0 0 20 21" fill="none" xmlns="http://www.w3.org/2000/svg">
<path fill-rule="evenodd" clip-rule="evenodd" d="M17 10.2222C17 10.4211 16.921 10.6119 16.7803 10.7525C16.6397 10.8932 16.4489 10.9722 16.25 10.9722L5.61201 10.9722L9.77001 14.9322C9.9064 15.0716 9.98312 15.2587 9.9839 15.4537C9.98467 15.6487 9.90943 15.8364 9.77414 15.9769C9.63885 16.1174 9.45416 16.1997 9.25923 16.2062C9.0643 16.2128 8.87447 16.1432 8.73001 16.0122L3.23001 10.7622C3.15742 10.6922 3.09968 10.6083 3.06025 10.5156C3.02081 10.4228 3.00049 10.323 3.00049 10.2222C3.00049 10.1214 3.02081 10.0216 3.06025 9.9288C3.09968 9.83602 3.15742 9.75214 3.23001 9.68217L8.73001 4.43217C8.8002 4.36043 8.88408 4.3035 8.97668 4.26476C9.06928 4.22603 9.16871 4.20627 9.26908 4.20667C9.36945 4.20707 9.46873 4.22761 9.56101 4.26707C9.6533 4.30654 9.73673 4.36413 9.80635 4.43643C9.87598 4.50873 9.93038 4.59427 9.96634 4.68799C10.0023 4.7817 10.0191 4.88167 10.0157 4.98199C10.0123 5.08231 9.98881 5.18092 9.9466 5.27199C9.9044 5.36306 9.84435 5.44474 9.77001 5.51217L5.61201 9.47217L16.25 9.47217C16.4489 9.47217 16.6397 9.55119 16.7803 9.69184C16.921 9.8325 17 10.0233 17 10.2222Z" fill="black"/>
</svg>
