<svg width="24" height="25" viewBox="0 0 24 25" fill="none" xmlns="http://www.w3.org/2000/svg">
<path d="M17.0502 20.5022C16.0702 21.4522 15.0002 21.3022 13.9702 20.8522C12.8802 20.3922 11.8802 20.3722 10.7302 20.8522C9.29016 21.4722 8.53016 21.2922 7.67016 20.5022C2.79016 15.4722 3.51016 7.81217 9.05016 7.53217C10.4002 7.60217 11.3402 8.27217 12.1302 8.33217C13.3102 8.09217 14.4402 7.40217 15.7002 7.49217C17.2102 7.61217 18.3502 8.21217 19.1002 9.29217C15.9802 11.1622 16.7202 15.2722 19.5802 16.4222C19.0102 17.9222 18.2702 19.4122 17.0402 20.5122L17.0502 20.5022ZM12.0302 7.47217C11.8802 5.24217 13.6902 3.40217 15.7702 3.22217C16.0602 5.80217 13.4302 7.72217 12.0302 7.47217Z" fill="#006EFF"/>
</svg>
