<svg width="24" height="25" viewBox="0 0 24 25" fill="none" xmlns="http://www.w3.org/2000/svg">
<g id="mdi:cash">
<path id="Vector" d="M3 6.22217H21V18.2222H3V6.22217ZM12 9.22217C12.7956 9.22217 13.5587 9.53824 14.1213 10.1008C14.6839 10.6635 15 11.4265 15 12.2222C15 13.0178 14.6839 13.7809 14.1213 14.3435C13.5587 14.9061 12.7956 15.2222 12 15.2222C11.2044 15.2222 10.4413 14.9061 9.87868 14.3435C9.31607 13.7809 9 13.0178 9 12.2222C9 11.4265 9.31607 10.6635 9.87868 10.1008C10.4413 9.53824 11.2044 9.22217 12 9.22217ZM7 8.22217C7 8.7526 6.78929 9.26131 6.41421 9.63638C6.03914 10.0115 5.53043 10.2222 5 10.2222V14.2222C5.53043 14.2222 6.03914 14.4329 6.41421 14.808C6.78929 15.183 7 15.6917 7 16.2222H17C17 15.6917 17.2107 15.183 17.5858 14.808C17.9609 14.4329 18.4696 14.2222 19 14.2222V10.2222C18.4696 10.2222 17.9609 10.0115 17.5858 9.63638C17.2107 9.26131 17 8.7526 17 8.22217H7Z" fill="#006EFF"/>
</g>
</svg>
