<svg width="24" height="25" viewBox="0 0 24 25" fill="none" xmlns="http://www.w3.org/2000/svg">
<path d="M9.93016 13.2122C10.0302 13.2122 12.3502 13.3122 13.7302 12.9722H13.7402C15.3302 12.5822 17.5402 11.4622 18.1102 7.80217C18.1102 7.80217 19.3802 3.22217 13.0802 3.22217H7.67016C7.18016 3.22217 6.76016 3.58217 6.68016 4.06217L4.38016 18.6222C4.33016 18.9222 4.57016 19.2022 4.87016 19.2022H8.30016L9.14016 13.8822C9.20016 13.5022 9.53016 13.2122 9.93016 13.2122Z" fill="#006EFF"/>
<path d="M18.9901 8.51221C18.1801 12.2422 15.6301 14.2122 11.5701 14.2122H10.1001L9.07005 20.7322C9.03005 20.9922 9.23005 21.2222 9.49005 21.2222H11.3901C11.7301 21.2222 12.0301 20.9722 12.0801 20.6322C12.1601 20.2322 12.6001 17.3122 12.6901 16.8122C12.7401 16.4722 13.0401 16.2222 13.3801 16.2222H13.8201C16.6401 16.2222 18.8501 15.0722 19.5001 11.7622C19.7601 10.4222 19.6201 9.32221 18.9901 8.51221Z" fill="#006EFF"/>
</svg>
