<svg width="24" height="25" viewBox="0 0 24 25" fill="none" xmlns="http://www.w3.org/2000/svg">
<path fill-rule="evenodd" clip-rule="evenodd" d="M10 4.22217H14C17.771 4.22217 19.657 4.22217 20.828 5.39417C21.672 6.23717 21.908 7.45117 21.974 9.47217H2.026C2.092 7.45117 2.328 6.23717 3.172 5.39417C4.343 4.22217 6.229 4.22217 10 4.22217ZM14 20.2222H10C6.229 20.2222 4.343 20.2222 3.172 19.0502C2 17.8792 2 15.9932 2 12.2222C2 11.7802 2 11.3642 2.002 10.9722H21.998C22 11.3642 22 11.7802 22 12.2222C22 15.9932 22 17.8792 20.828 19.0502C19.657 20.2222 17.771 20.2222 14 20.2222ZM6 15.4722C5.80109 15.4722 5.61032 15.5512 5.46967 15.6918C5.32902 15.8325 5.25 16.0233 5.25 16.2222C5.25 16.4211 5.32902 16.6118 5.46967 16.7525C5.61032 16.8932 5.80109 16.9722 6 16.9722H10C10.1989 16.9722 10.3897 16.8932 10.5303 16.7525C10.671 16.6118 10.75 16.4211 10.75 16.2222C10.75 16.0233 10.671 15.8325 10.5303 15.6918C10.3897 15.5512 10.1989 15.4722 10 15.4722H6ZM12.5 15.4722C12.3011 15.4722 12.1103 15.5512 11.9697 15.6918C11.829 15.8325 11.75 16.0233 11.75 16.2222C11.75 16.4211 11.829 16.6118 11.9697 16.7525C12.1103 16.8932 12.3011 16.9722 12.5 16.9722H14C14.1989 16.9722 14.3897 16.8932 14.5303 16.7525C14.671 16.6118 14.75 16.4211 14.75 16.2222C14.75 16.0233 14.671 15.8325 14.5303 15.6918C14.3897 15.5512 14.1989 15.4722 14 15.4722H12.5Z" fill="#006EFF"/>
</svg>
