<svg width="15" height="11" viewBox="0 0 15 11" fill="none" xmlns="http://www.w3.org/2000/svg">
<g id="bed">
<g id="Group 37">
<path id="Path 50" d="M13.6311 6.42153V1.88825C13.6307 1.59815 13.5153 1.32004 13.3102 1.11483C13.1052 0.90963 12.8271 0.794065 12.537 0.793457H2.68007C2.3897 0.79366 2.11127 0.909042 1.90588 1.11429C1.70049 1.31954 1.58491 1.59789 1.58451 1.88825V6.42075C1.41862 6.51617 1.28073 6.65352 1.18465 6.81903C1.08858 6.98453 1.0377 7.17238 1.03711 7.36375L1.03711 8.46008C1.03752 8.75031 1.15299 9.02854 1.35822 9.23377C1.56344 9.43899 1.84167 9.55447 2.1319 9.55487V10.3767C2.1319 10.4493 2.16074 10.5189 2.21207 10.5703C2.2634 10.6216 2.33301 10.6504 2.4056 10.6504H2.95376C3.00477 10.6502 3.05469 10.6357 3.0979 10.6086C3.14112 10.5815 3.1759 10.5429 3.19833 10.4971L3.66983 9.55334H11.545L12.0165 10.4971C12.0389 10.5429 12.0737 10.5815 12.1169 10.6086C12.1601 10.6357 12.21 10.6502 12.261 10.6504H12.8084C12.881 10.6504 12.9506 10.6216 13.002 10.5703C13.0533 10.5189 13.0821 10.4493 13.0821 10.3767V9.55411C13.3725 9.55411 13.651 9.43892 13.8565 9.23381C14.0621 9.02871 14.1779 8.75044 14.1785 8.46008V7.36375C14.1777 7.17251 14.1268 6.98482 14.0307 6.81946C13.9347 6.6541 13.7968 6.51688 13.6311 6.42153ZM2.13114 1.88902C2.13134 1.7439 2.18908 1.60478 2.29169 1.50217C2.3943 1.39956 2.53342 1.34182 2.67853 1.34162H12.537C12.6822 1.34182 12.8213 1.39956 12.9239 1.50217C13.0265 1.60478 13.0842 1.7439 13.0844 1.88902V6.26972H12.3837C12.4167 6.22986 12.4535 6.19306 12.4841 6.15319C12.5165 6.10731 12.5338 6.05254 12.5338 5.99641C12.5338 5.94027 12.5165 5.88551 12.4841 5.83963C12.3607 5.64393 12.1915 5.48117 11.9912 5.36538C11.7908 5.24959 11.5654 5.18422 11.3341 5.17493H9.35463C9.12342 5.18422 8.89795 5.24959 8.69761 5.36538C8.49728 5.48117 8.3281 5.64393 8.20463 5.83963C8.1723 5.88551 8.15494 5.94027 8.15494 5.99641C8.15494 6.05254 8.1723 6.10731 8.20463 6.15319C8.2353 6.19689 8.2721 6.22986 8.30507 6.26972H6.90974C6.94271 6.22986 6.97951 6.19306 7.01017 6.15319C7.04251 6.10731 7.05987 6.05254 7.05987 5.99641C7.05987 5.94027 7.04251 5.88551 7.01017 5.83963C6.88671 5.64393 6.71753 5.48117 6.5172 5.36538C6.31686 5.24959 6.09138 5.18422 5.86018 5.17493H3.87913C3.64792 5.18422 3.42244 5.24959 3.22211 5.36538C3.02178 5.48117 2.85259 5.64393 2.72913 5.83963C2.6968 5.88551 2.67944 5.94027 2.67944 5.99641C2.67944 6.05254 2.6968 6.10731 2.72913 6.15319C2.7598 6.19689 2.7966 6.22986 2.82957 6.26972H2.1319L2.13114 1.88902ZM11.9084 5.99526C11.8366 6.07765 11.7486 6.14445 11.65 6.19152C11.5514 6.2386 11.4441 6.26495 11.3349 6.26896H9.35463C9.24541 6.26495 9.13818 6.2386 9.03954 6.19152C8.94091 6.14445 8.85297 6.07765 8.78116 5.99526C8.85297 5.91287 8.94091 5.84608 9.03954 5.799C9.13818 5.75193 9.24541 5.72557 9.35463 5.72156H11.3364C11.4455 5.72568 11.5526 5.75208 11.6511 5.79915C11.7496 5.84622 11.8374 5.91297 11.9091 5.99526H11.9084ZM6.43288 5.99526C6.36107 6.07765 6.27313 6.14445 6.1745 6.19152C6.07587 6.2386 5.96863 6.26495 5.85942 6.26896H3.87913C3.76991 6.26495 3.66267 6.2386 3.56404 6.19152C3.46541 6.14445 3.37747 6.07765 3.30566 5.99526C3.37747 5.91287 3.46541 5.84608 3.56404 5.799C3.66267 5.75193 3.76991 5.72557 3.87913 5.72156H5.86095C5.97003 5.72568 6.07712 5.75208 6.17562 5.79915C6.27411 5.84622 6.36192 5.91297 6.43364 5.99526H6.43288ZM2.78357 10.1015H2.68007V9.55411H3.0588L2.78357 10.1015ZM12.5347 10.1015H12.4297L12.156 9.55411H12.537L12.5347 10.1015ZM13.6311 8.46008C13.6309 8.6052 13.5731 8.74431 13.4705 8.84693C13.3679 8.94954 13.2288 9.00727 13.0837 9.00747H2.1319C1.98679 9.00727 1.84767 8.94954 1.74506 8.84693C1.64245 8.74431 1.58471 8.6052 1.58451 8.46008V7.36375C1.58471 7.21864 1.64245 7.07952 1.74506 6.97691C1.84767 6.87429 1.98679 6.81656 2.1319 6.81636H13.0829C13.228 6.81656 13.3671 6.87429 13.4698 6.97691C13.5724 7.07952 13.6301 7.21864 13.6303 7.36375L13.6311 8.46008Z" fill="#122D4D" stroke="#122D4D" stroke-width="0.1"/>
</g>
</g>
</svg>
