<svg width="243" height="60" viewBox="0 0 243 60" fill="none" xmlns="http://www.w3.org/2000/svg">
<g id="Layer_1" clip-path="url(#clip0_4340_20601)">
<path id="Vector" d="M23.1814 49.9138H17.4297V44.3151H23.225V49.9138H23.1814ZM23.1814 35.7822H17.4297V41.3809H23.225V35.7822H23.1814ZM31.809 44.3151H26.0137V49.9138H31.7981V44.3151H31.809ZM31.809 35.7822H26.0137V41.3809H31.7981V35.7822H31.809Z" fill="#343434"/>
<path id="Vector_2" d="M47.7131 28.4898L31.8414 15.9224L31.5908 13.8943C31.4912 12.9965 31.331 12.1064 31.1115 11.2298C30.4267 8.1662 28.9773 5.3215 26.8957 2.95579C24.7171 0.58254 22.0808 -0.420686 19.6189 0.151051C17.157 0.722787 15.2616 2.7832 14.401 5.93314C13.6161 8.96576 13.6161 12.1454 14.401 15.178C14.5969 16.0097 14.848 16.8278 15.1526 17.6268L1.44867 28.4898C0.631636 29.1462 0.110649 30.0966 -0.000159314 31.1327C-0.0986518 31.9897 0.0929244 32.8548 0.544513 33.5923L0.882211 34.013L1.18723 34.3905C1.9239 35.0861 2.90363 35.4726 3.92148 35.4693H5.84962V55.3075C5.85248 56.535 6.34542 57.7115 7.2209 58.5805C8.09638 59.4495 9.28336 59.9404 10.5229 59.9461H38.5517C39.7923 59.9404 40.9804 59.4499 41.8576 58.5812C42.7348 57.7125 43.2302 56.5359 43.2359 55.3075V35.4693H45.164C46.2196 35.4693 47.232 35.0548 47.9794 34.3167C48.7268 33.5786 49.1482 32.5771 49.151 31.5318C49.1527 30.9512 49.0247 30.3773 48.7761 29.8514C48.5275 29.3254 48.1645 28.8605 47.7131 28.4898ZM18.3008 9.27726C18.3522 8.56548 18.4763 7.86069 18.6712 7.1737C19.096 5.66345 19.815 4.69257 20.632 4.48761C20.7479 4.47649 20.8647 4.47649 20.9806 4.48761C22.0273 4.63769 22.9713 5.19239 23.6059 6.03023C25.1247 7.78097 26.1869 9.87366 26.6997 12.1252C25.8477 11.7314 24.9015 11.5814 23.9679 11.6919C23.0343 11.8025 22.1506 12.1692 21.4163 12.7508L18.9 14.7249C18.9 14.5523 18.8237 14.3797 18.7692 14.1856C18.4081 12.7395 18.2469 11.2517 18.2899 9.76269C18.2899 9.56851 18.2899 9.42829 18.2899 9.35278L18.3008 9.27726ZM41.0463 31.1003C40.4737 31.1166 39.929 31.3492 39.524 31.7503C39.1189 32.1514 38.8841 32.6908 38.8676 33.2578V55.3075C38.8676 55.3647 38.8447 55.4196 38.8038 55.46C38.763 55.5005 38.7076 55.5232 38.6498 55.5232H10.5883C10.5588 55.5247 10.5292 55.5202 10.5015 55.51C10.4738 55.4998 10.4485 55.4841 10.4271 55.464C10.4057 55.4438 10.3887 55.4195 10.3771 55.3926C10.3654 55.3657 10.3595 55.3367 10.3595 55.3075V33.2471C10.3431 32.68 10.1082 32.1406 9.70316 31.7395C9.29809 31.3384 8.75344 31.1058 8.18081 31.0896H5.44656L17.2768 21.6613C17.7018 22.2836 18.1715 22.8748 18.6821 23.4305C19.063 23.8416 19.4744 24.2238 19.9131 24.5739L20.0329 24.671V24.7465C20.0329 24.8112 20.0329 24.9083 20.0329 25.027C20.0329 25.1457 20.0329 25.178 20.0329 25.2643C20.0329 25.3506 20.0873 25.5016 20.12 25.6419C20.168 25.8247 20.2262 26.0048 20.2943 26.1812C20.6386 27.0241 21.2287 27.7461 21.9893 28.2553C22.7499 28.7645 23.6465 29.0377 24.5645 29.0399C25.1708 29.0437 25.7718 28.9283 26.3327 28.7006C26.8937 28.4728 27.4035 28.1372 27.8326 27.7131C28.2638 27.2897 28.6054 26.7855 28.8373 26.2298C29.0693 25.6741 29.1869 25.0781 29.1834 24.4768C29.1863 23.8756 29.0684 23.2799 28.8365 22.7243C28.6046 22.1686 28.2633 21.6643 27.8326 21.2406C27.4042 20.8155 26.8945 20.4792 26.3334 20.2514C25.7723 20.0236 25.171 19.9088 24.5645 19.9137C23.6082 19.9125 22.6752 20.2066 21.8957 20.7551C21.4125 20.1936 20.9754 19.5948 20.5884 18.9644L24.216 16.0734C24.3164 15.989 24.4438 15.9427 24.5754 15.9427C24.7071 15.9427 24.8345 15.989 24.9349 16.0734L43.835 31.0572L41.0463 31.1003Z" fill="#308DFF"/>
<path id="Vector_3" d="M94.479 56.6128C93.5387 56.6202 92.6098 56.4097 91.7665 55.9979C90.9342 55.562 90.2488 54.8945 89.7948 54.0777C89.2967 53.1221 89.053 52.0565 89.0867 50.9817C89.037 50.1664 89.1967 49.3519 89.5511 48.6143C89.9054 47.8766 90.4427 47.24 91.1129 46.7638C91.5376 46.4817 91.9902 46.2432 92.4637 46.0518L90.4157 41.3269L91.102 40.9709C92.1006 40.4798 93.1586 40.1173 94.2502 39.8922C95.4987 39.649 96.7687 39.5298 98.0411 39.5362C99.8548 39.4387 101.641 40.0115 103.052 41.1435C103.689 41.7245 104.188 42.4378 104.514 43.2323C104.84 44.0268 104.984 44.8828 104.937 45.739V56.3323H100.046L99.3156 54.8976C99.0942 55.1076 98.8615 55.3056 98.6185 55.4909C98.0721 55.8841 97.4545 56.1698 96.7993 56.3323C96.0417 56.5268 95.2615 56.6211 94.479 56.6128ZM97.8124 49.7304C97.2719 49.6977 96.7329 49.8134 96.2546 50.0648C96.1648 50.1388 96.095 50.2337 96.0513 50.341C96.0076 50.4483 95.9913 50.5646 96.004 50.6797C95.9888 50.8667 96.0387 51.0533 96.1457 51.2082C96.3004 51.3269 96.4958 51.3811 96.6903 51.3593C97.0911 51.3778 97.4828 51.2382 97.7797 50.9709C97.9131 50.854 98.0185 50.7091 98.0882 50.5467C98.1579 50.3844 98.1902 50.2087 98.1827 50.0324V49.7196L97.8124 49.7304ZM97.1152 44.8005C96.5168 44.8147 95.9232 44.9091 95.3504 45.0809C94.7383 45.2509 94.1379 45.4599 93.553 45.7066C94.4842 45.478 95.4373 45.3479 96.3962 45.3183L98.0629 45.2643C98.0368 45.1746 97.9881 45.0929 97.9213 45.027C97.6902 44.8552 97.4029 44.7744 97.1152 44.8005ZM61.3084 56.6667C59.4739 56.7018 57.6579 56.2984 56.0142 55.4909C54.4462 54.6936 53.17 53.4298 52.3649 51.8771C51.4479 50.0045 51.0102 47.9373 51.0904 45.8576C51.0446 43.9139 51.4784 41.9884 52.354 40.2482C53.1975 38.6467 54.5169 37.3401 56.134 36.5049C57.9845 35.6013 60.0304 35.1605 62.0928 35.2212C63.3111 35.2161 64.5267 35.3354 65.7203 35.5772C66.7525 35.7815 67.7602 36.0924 68.7269 36.5049L69.4567 36.8177L67.1691 42.438L66.3739 42.0497C65.74 41.7381 65.0707 41.5027 64.3804 41.3485C63.6408 41.1808 62.8842 41.0975 62.1254 41.1004C61.3043 41.0571 60.4908 41.2765 59.8051 41.726C59.2248 42.1573 58.7884 42.751 58.5524 43.4305C58.268 44.2602 58.1316 45.1326 58.1493 46.0087C58.123 46.9382 58.2745 47.8642 58.596 48.7379C58.8308 49.3444 59.2446 49.8669 59.7833 50.2374C60.375 50.5865 61.0559 50.7588 61.7442 50.7336C62.1082 50.7315 62.4718 50.7099 62.8335 50.6689H63.1276V49.1478H59.6091V43.506H69.631V55.2751L69.0863 55.4585C67.921 55.8443 66.7261 56.1365 65.5133 56.3323C64.1215 56.537 62.7154 56.6308 61.3084 56.6128V56.6667ZM119.665 56.397V39.8598H124.937L125.503 41.5427C125.634 41.4024 125.765 41.2622 125.907 41.1327C126.401 40.6882 126.964 40.3241 127.573 40.054C128.214 39.7367 128.916 39.5601 129.632 39.5362C129.968 39.5358 130.303 39.5611 130.634 39.6117L131.353 39.7088L132.094 39.8382L131.473 46.3862L130.536 46.1381C130.364 46.1014 130.189 46.0761 130.013 46.0626C129.652 46.0208 129.288 46.0028 128.924 46.0087C128.617 46.0127 128.311 46.0415 128.009 46.095C127.734 46.1404 127.471 46.2394 127.236 46.3862C127.012 46.523 126.834 46.7218 126.724 46.958C126.551 47.3444 126.472 47.7657 126.495 48.1877V56.3323L119.665 56.397ZM106.876 56.397V39.8598H112.203L112.769 41.5427C112.9 41.4024 113.03 41.2622 113.172 41.1327C113.665 40.6858 114.228 40.3214 114.839 40.054C115.47 39.7776 116.153 39.6344 116.843 39.6333C117.179 39.6329 117.514 39.6582 117.845 39.7088L118.564 39.8059L119.305 39.9353L118.673 46.4833L117.747 46.2352C117.575 46.1993 117.4 46.174 117.224 46.1597C116.863 46.1179 116.499 46.0998 116.135 46.1058C115.828 46.1097 115.522 46.1386 115.22 46.1921C114.942 46.238 114.676 46.3369 114.436 46.4833C114.218 46.624 114.045 46.822 113.935 47.0551C113.762 47.4415 113.683 47.8628 113.706 48.2848V56.4294L106.876 56.397ZM81.1345 56.397V47.4542C81.1847 46.8253 81.0723 46.1942 80.8077 45.6203C80.7516 45.5019 80.6594 45.4039 80.5441 45.34C80.4288 45.2762 80.2962 45.2497 80.165 45.2643C79.9997 45.2504 79.8334 45.2701 79.676 45.322C79.5187 45.3739 79.3737 45.4571 79.2499 45.5664C78.9567 45.8903 78.7638 46.291 78.6944 46.7206C78.5466 47.4812 78.4772 48.2547 78.4874 49.0292V56.397H71.6572V34.2935H78.4874V38.0151C78.4874 38.986 78.4874 39.8382 78.4329 40.561C78.9009 40.224 79.4297 39.9787 79.9907 39.8382C80.5974 39.6737 81.2244 39.5939 81.8535 39.6009C82.9028 39.5877 83.9416 39.809 84.8927 40.2482C85.834 40.6882 86.6197 41.3987 87.1477 42.287C87.7365 43.3764 88.0222 44.6013 87.9756 45.8361V56.3431L81.1345 56.397Z" fill="#343434"/>
<path id="Vector_4" d="M77.6701 35.0485V37.9611C77.6701 39.0398 77.6701 39.9891 77.5938 40.7443C77.5176 41.4994 77.5067 42.0604 77.4631 42.4595H77.7028C77.9876 41.9845 78.3566 41.5642 78.7921 41.2189C79.2103 40.9202 79.6787 40.6974 80.1756 40.5609C80.7155 40.4184 81.2726 40.3495 81.8314 40.3559C82.7559 40.3401 83.6721 40.5319 84.5112 40.9169C85.324 41.2988 85.9976 41.9206 86.4393 42.6968C86.9587 43.6605 87.207 44.7447 87.1583 45.836V55.5447H81.9294V47.4109C81.9772 46.6386 81.8274 45.8668 81.4937 45.1671C81.3639 44.9274 81.1681 44.7292 80.9289 44.5955C80.6898 44.4618 80.4172 44.3982 80.1429 44.412C79.87 44.3952 79.5966 44.4344 79.3397 44.5272C79.0829 44.62 78.8482 44.7644 78.6505 44.9514C78.2445 45.383 77.9756 45.9231 77.877 46.5048C77.7104 47.3212 77.6337 48.1531 77.6483 48.9859V55.5447H72.4739V35.0485H77.6701ZM62.0925 36.0086C63.2561 36.0052 64.4169 36.1209 65.5566 36.3538C66.531 36.5468 67.4835 36.8359 68.3998 37.2168L66.7331 41.3052C66.0419 40.961 65.31 40.7037 64.5544 40.5393C63.7576 40.3584 62.9426 40.268 62.1251 40.2696C61.1282 40.221 60.1421 40.4935 59.3146 41.0463C58.6097 41.5758 58.079 42.3003 57.7895 43.1283C57.4617 44.0529 57.3066 45.0289 57.332 46.0086C57.3015 47.0414 57.4716 48.0705 57.8331 49.0398C58.1338 49.7972 58.6576 50.4474 59.3364 50.9061C60.0592 51.3458 60.8959 51.567 61.7439 51.5425C62.0598 51.5425 62.4301 51.5426 62.8332 51.4778C63.1785 51.452 63.521 51.3978 63.8572 51.316V48.3063H60.4258V44.2826H68.8137V54.6386C67.692 55.0137 66.5405 55.2951 65.3714 55.48C64.0284 55.6996 62.6693 55.8079 61.3081 55.8036C59.6034 55.8382 57.9152 55.4683 56.3843 54.7249C54.9877 54.0006 53.8476 52.8716 53.1163 51.4886C52.2741 49.7474 51.8705 47.8301 51.9398 45.9007C51.8751 44.0735 52.2641 42.2585 53.0727 40.6148C53.842 39.1573 55.0432 37.9678 56.515 37.206C58.2466 36.3592 60.1622 35.9479 62.0925 36.0086ZM129.556 40.3236C129.854 40.3249 130.153 40.3465 130.449 40.3883L131.135 40.4746L130.721 45.3721C130.509 45.3228 130.295 45.2867 130.078 45.2642C129.717 45.226 129.353 45.208 128.989 45.2103C128.624 45.2099 128.259 45.2424 127.9 45.3074C127.514 45.3641 127.144 45.4961 126.81 45.6957C126.461 45.9155 126.179 46.225 125.993 46.5911C125.763 47.0951 125.655 47.6456 125.677 48.1984V55.5339H120.481V40.6148H124.348L125.165 42.9989H125.416C125.704 42.5013 126.072 42.0532 126.505 41.672C126.929 41.2723 127.419 40.9476 127.954 40.7119C128.478 40.4788 129.046 40.3575 129.621 40.3559M116.832 40.3559C117.127 40.3568 117.422 40.3784 117.714 40.4207L118.412 40.5069L117.943 45.3721C117.728 45.322 117.51 45.286 117.29 45.2642C116.928 45.2252 116.564 45.2072 116.2 45.2103C115.835 45.2106 115.47 45.2431 115.111 45.3074C114.725 45.3646 114.355 45.4966 114.021 45.6957C113.669 45.9112 113.385 46.2217 113.204 46.5911C112.974 47.0951 112.866 47.6456 112.889 48.1984V55.5339H107.692V40.6148H111.56L112.366 42.9989H112.616C112.909 42.5041 113.276 42.0567 113.706 41.672C114.13 41.2723 114.62 40.9476 115.154 40.7119C115.678 40.4778 116.246 40.3565 116.821 40.3559M98.1062 40.3559C99.7188 40.2607 101.31 40.7603 102.572 41.7583C103.122 42.2642 103.552 42.8845 103.831 43.5747C104.11 44.2649 104.231 45.0077 104.185 45.7497V55.5339H100.546L99.5441 53.5598H99.4461C99.063 54.0441 98.6202 54.479 98.128 54.8543C97.6658 55.1852 97.1446 55.4268 96.592 55.5663C95.9008 55.7354 95.1905 55.8152 94.4786 55.8036C93.6703 55.8129 92.8712 55.6318 92.1475 55.275C91.4497 54.9184 90.8766 54.3621 90.5025 53.6785C90.0777 52.8435 89.8717 51.9161 89.9034 50.9816C89.8567 50.2962 89.986 49.6103 90.2794 48.9878C90.5727 48.3653 91.0205 47.8265 91.581 47.4217C93.0484 46.5522 94.7295 46.1006 96.4395 46.1164L98.9559 46.0409V45.836C98.982 45.5759 98.9497 45.3133 98.8612 45.0671C98.7726 44.8209 98.6301 44.5972 98.4439 44.412C98.0674 44.1161 97.5948 43.9665 97.1149 43.9913C96.4387 44.0011 95.7674 44.1064 95.1214 44.3041C94.3769 44.5144 93.6488 44.7775 92.9427 45.0916L91.4285 41.6936C92.3643 41.2359 93.3569 40.9023 94.3806 40.7011C95.5957 40.4563 96.8336 40.3406 98.0735 40.3559M96.69 52.2222C97.2836 52.2319 97.8591 52.0201 98.3022 51.6289C98.5226 51.4368 98.6973 51.199 98.8141 50.9323C98.9308 50.6656 98.9867 50.3767 98.9776 50.0862V48.932H97.7794C97.0719 48.9013 96.371 49.0777 95.7641 49.439C95.5726 49.5856 95.42 49.7761 95.3194 49.9941C95.2188 50.2121 95.1733 50.451 95.1867 50.6903C95.1785 50.8885 95.2109 51.0863 95.2821 51.2717C95.3532 51.4571 95.4616 51.6263 95.6007 51.7691C95.9069 52.0169 96.295 52.1437 96.69 52.1251M79.2605 33.3872H70.8072V57.1197H79.3041V48.9428C79.288 48.2186 79.3537 47.4949 79.5002 46.7853C79.5276 46.5114 79.6377 46.252 79.8161 46.0409C79.9043 45.9781 80.0134 45.951 80.1211 45.9654C80.2812 46.4075 80.348 46.8775 80.3172 47.3462V57.055H88.8141V53.8187C88.888 54.0045 88.9754 54.1848 89.0755 54.3581C89.6009 55.322 90.4102 56.1046 91.3958 56.6019C92.3502 57.0825 93.408 57.3268 94.4786 57.3138C95.3419 57.3305 96.2034 57.2288 97.0386 57.0118C97.7622 56.8276 98.4453 56.5131 99.0539 56.0841V56.1488L99.5005 57.0442H105.753V45.6418C105.802 44.6694 105.632 43.6984 105.255 42.7992C104.878 41.9 104.304 41.0949 103.575 40.4422C102.007 39.2153 100.035 38.608 98.0408 38.7378C96.6878 38.7274 95.3373 38.8539 94.0102 39.1154C92.842 39.3472 91.7101 39.7318 90.6442 40.2588L89.2825 40.9492L89.8925 42.3408L91.3522 45.6526C91.0978 45.7872 90.8505 45.9349 90.6115 46.0949C89.817 46.6384 89.1849 47.3836 88.7814 48.2524V45.8036C88.8333 44.4233 88.5058 43.0549 87.8337 41.8446C87.228 40.7889 86.3071 39.9448 85.1974 39.4282C84.1424 38.9346 82.9871 38.6873 81.8205 38.7054C81.114 38.6989 80.4101 38.7897 79.7289 38.9751L79.2605 39.1154C79.2605 38.7378 79.2605 38.3494 79.2605 37.9287V33.398V33.3872ZM62.0925 34.3904C59.8877 34.3327 57.7025 34.8144 55.7307 35.7928C53.9646 36.7054 52.5236 38.1324 51.6021 39.8813C50.6695 41.7356 50.2059 43.7865 50.2513 45.8575C50.1794 48.0511 50.6507 50.2288 51.6239 52.2006C52.5095 53.8953 53.9019 55.2779 55.6109 56.1596C57.3745 57.0209 59.3201 57.4535 61.2863 57.4217C62.7459 57.4249 64.2032 57.3094 65.6437 57.0765C66.9015 56.8765 68.1404 56.5734 69.3475 56.1704L70.4368 55.7928V42.6429H67.9749L68.269 41.9093L69.9357 37.8209L70.524 36.3645L69.0751 35.7389C68.0591 35.3072 67.0003 34.9819 65.916 34.768C64.6652 34.5132 63.3912 34.3867 62.1142 34.3904H62.0925ZM59.9138 42.6429C60.0159 42.5346 60.1291 42.4369 60.2515 42.3516C60.7969 42.0098 61.4374 41.8474 62.0816 41.8877C62.7744 41.883 63.4655 41.9591 64.1404 42.1143C64.6913 42.235 65.228 42.4121 65.7418 42.6429H59.9791H59.9138ZM129.632 38.7378C128.831 38.7361 128.04 38.9053 127.311 39.234C126.818 39.4463 126.354 39.7181 125.928 40.0431L125.579 38.9643H119.109L118.651 38.8888L117.856 38.781C117.495 38.7271 117.131 38.7018 116.767 38.7054C115.963 38.7048 115.168 38.874 114.435 39.2017C113.947 39.4164 113.486 39.688 113.063 40.0107L112.714 38.932H106.058V57.0873H114.523V48.1661C114.509 47.8806 114.549 47.5951 114.642 47.3246C114.693 47.2225 114.764 47.131 114.849 47.055C115.003 46.9629 115.173 46.9007 115.35 46.8716C115.609 46.8218 115.872 46.7965 116.135 46.796C116.432 46.7725 116.731 46.7725 117.028 46.796L117.486 46.8608L118.847 47.2168V57.0765H127.311V48.1661C127.291 47.8794 127.335 47.5918 127.442 47.3246C127.489 47.2202 127.56 47.1279 127.649 47.055C127.798 46.9614 127.965 46.899 128.139 46.8716C128.398 46.8218 128.66 46.7965 128.924 46.796C129.225 46.7723 129.527 46.7723 129.828 46.796L130.274 46.8608L132.137 47.3462L132.322 45.4476L132.78 40.5932L132.922 39.1046L131.44 38.8457L130.656 38.7378C130.295 38.6845 129.931 38.6593 129.566 38.6623L129.632 38.7378Z" fill="white"/>
<path id="Vector_5" d="M154.785 56.6127C153.672 56.6156 152.567 56.4295 151.517 56.0625C150.521 55.688 149.616 55.111 148.859 54.3689C148.068 53.6026 147.454 52.675 147.062 51.6504C146.644 50.495 146.441 49.2743 146.462 48.0474C146.417 46.4683 146.761 44.9019 147.465 43.4843C148.121 42.2301 149.147 41.2031 150.406 40.5393C151.783 39.8522 153.309 39.5113 154.85 39.5469C156.324 39.5246 157.78 39.8657 159.088 40.5393C160.348 41.2029 161.382 42.2198 162.062 43.4627C162.814 44.8739 163.189 46.4522 163.151 48.0474C163.166 49.2642 162.975 50.4749 162.585 51.6288C162.231 52.6534 161.654 53.5886 160.896 54.3689C160.135 55.1156 159.221 55.693 158.216 56.0625C157.113 56.4409 155.952 56.6271 154.785 56.6127ZM154.785 44.9945C154.581 44.9753 154.377 45.0176 154.198 45.1158C154.019 45.214 153.874 45.3635 153.783 45.5447C153.458 46.3379 153.317 47.193 153.369 48.0474C153.356 48.7072 153.422 49.3661 153.565 50.0107C153.637 50.3626 153.807 50.6876 154.055 50.9492C154.268 51.1147 154.536 51.1955 154.807 51.1758C155.07 51.1964 155.332 51.1153 155.537 50.9492C155.774 50.6845 155.932 50.3595 155.994 50.0107C156.146 49.3675 156.216 48.7079 156.201 48.0474C156.218 47.3975 156.149 46.7483 155.994 46.1164C155.938 45.7784 155.779 45.4657 155.537 45.2211C155.332 45.0632 155.077 44.9828 154.818 44.9945H154.785ZM164.491 56.343V39.8058H169.763L170.341 41.4886C170.463 41.3441 170.594 41.2072 170.733 41.0787C171.231 40.6339 171.798 40.2698 172.411 39.9999C173.038 39.7238 173.717 39.5805 174.404 39.5792C174.74 39.5789 175.075 39.6041 175.406 39.6547L176.125 39.7518L176.877 39.8813L176.245 46.4293L175.319 46.1812C175.143 46.1453 174.965 46.1201 174.785 46.1056C174.442 46.0664 174.096 46.0483 173.75 46.0517C173.444 46.0557 173.138 46.0845 172.835 46.138C172.561 46.1834 172.298 46.2824 172.062 46.4293C171.838 46.566 171.66 46.7648 171.55 47.001C171.377 47.3874 171.299 47.8087 171.321 48.2308V56.3753L164.491 56.343ZM132.748 56.343V35.48H145.82V41.2729H139.501V43.3225H145.329V49.1154H139.567V56.343H132.748Z" fill="#308DFF"/>
<path id="Vector_6" d="M145.068 36.2999V40.4747H138.75V44.1424H144.578V48.3172H138.75V55.5448H133.575V36.2999H145.068ZM174.415 40.3668C174.714 40.3681 175.012 40.3897 175.308 40.4315L175.994 40.5178L175.537 45.383C175.321 45.3347 175.103 45.2987 174.883 45.2751C174.522 45.2369 174.158 45.2189 173.794 45.2212C173.429 45.2208 173.064 45.2533 172.705 45.3182C172.32 45.3769 171.95 45.5087 171.615 45.7066C171.267 45.9236 170.987 46.2341 170.809 46.602C170.569 47.1033 170.457 47.6551 170.482 48.2093V55.5448H165.286V40.6149H169.153L169.97 42.9989H170.221C170.509 42.5014 170.877 42.0533 171.31 41.6721C171.736 41.2747 172.226 40.9502 172.759 40.712C173.283 40.4789 173.851 40.3576 174.426 40.356M154.883 40.356C156.224 40.3295 157.55 40.6374 158.739 41.2514C159.859 41.848 160.779 42.7552 161.386 43.8619C162.068 45.1513 162.402 46.5929 162.356 48.0475C162.375 49.173 162.198 50.2933 161.833 51.3592C161.52 52.2717 161.006 53.1042 160.33 53.7972C159.662 54.467 158.85 54.9795 157.955 55.2967C156.94 55.6464 155.871 55.818 154.796 55.8037C153.771 55.8128 152.753 55.6411 151.789 55.2967C150.903 54.9687 150.097 54.4575 149.425 53.7972C148.73 53.1215 148.191 52.3044 147.846 51.4024C147.468 50.3391 147.283 49.2178 147.301 48.0906C147.257 46.6436 147.567 45.2075 148.205 43.9051C148.785 42.7928 149.693 41.8821 150.809 41.2945C152.067 40.6662 153.464 40.3585 154.872 40.3992M154.872 52.0281C155.348 52.0519 155.813 51.8891 156.168 51.575C156.52 51.2064 156.758 50.7461 156.855 50.2481C157.02 49.541 157.097 48.8164 157.083 48.0906C157.1 47.3647 157.023 46.6397 156.855 45.9331C156.756 45.4409 156.509 44.9897 156.147 44.6386C155.787 44.3343 155.322 44.1797 154.85 44.2071C154.499 44.187 154.15 44.268 153.845 44.4403C153.539 44.6126 153.291 44.8688 153.129 45.178C152.74 46.0909 152.565 47.0794 152.617 48.0691C152.606 48.7941 152.679 49.5181 152.835 50.2266C152.942 50.7277 153.191 51.1881 153.554 51.5534C153.92 51.864 154.391 52.0258 154.872 52.0065M146.735 34.7465H131.941V57.2276H140.384V50H145.831C145.932 50.6853 146.108 51.3579 146.353 52.0065C146.776 53.1405 147.442 54.1708 148.303 55.027C149.138 55.8054 150.124 56.4074 151.201 56.7961C152.349 57.2122 153.563 57.4204 154.785 57.411C156.05 57.4212 157.307 57.2131 158.5 56.7961C159.625 56.3964 160.645 55.7512 161.484 54.9083C162.327 54.0468 162.966 53.0117 163.358 51.877C163.49 51.5247 163.599 51.1644 163.685 50.7983V57.1629H172.116V48.1661C172.094 47.8794 172.138 47.5914 172.247 47.3247C172.294 47.2203 172.365 47.128 172.454 47.055C172.603 46.9615 172.77 46.8991 172.944 46.8717C173.203 46.8223 173.465 46.7971 173.729 46.7961C174.03 46.7746 174.332 46.7746 174.633 46.7961L175.09 46.8609L176.942 47.3463L177.127 45.4477L177.596 40.5933L177.737 39.1047L176.245 38.8458L175.461 38.7379C175.1 38.6846 174.736 38.6593 174.371 38.6624C173.571 38.6606 172.779 38.8299 172.051 39.1586C171.563 39.3733 171.102 39.6449 170.678 39.9676L170.319 38.8889H163.641V45.2751C163.459 44.4631 163.158 43.6817 162.748 42.9558C162.003 41.5828 160.867 40.4572 159.48 39.7195C158.056 38.9836 156.468 38.6127 154.861 38.6408C153.188 38.6044 151.531 38.9748 150.035 39.7195C148.644 40.4504 147.505 41.5777 146.767 42.9558C146.545 43.3744 146.359 43.8111 146.212 44.2611V42.3733H140.384V41.9418H146.702V34.5308L146.735 34.7465ZM154.839 50.3236C154.765 50.3462 154.685 50.3462 154.611 50.3236C154.502 50.164 154.428 49.9841 154.393 49.7951C154.261 49.222 154.203 48.6349 154.218 48.0475C154.163 47.3131 154.274 46.5758 154.545 45.89C154.545 45.8037 154.611 45.7821 154.818 45.7821C154.89 45.7706 154.963 45.7706 155.035 45.7821C155.138 45.9224 155.206 46.0852 155.232 46.2568C155.367 46.8293 155.429 47.4164 155.417 48.0043C155.426 48.5951 155.368 49.185 155.242 49.7627C155.21 49.9628 155.127 50.1518 155.003 50.3129H154.839V50.3236Z" fill="white"/>
<path id="Vector_7" d="M180.297 56.6776C179.41 56.6995 178.539 56.4386 177.813 55.9332C177.418 55.6333 177.104 55.2405 176.901 54.7903C176.697 54.3402 176.61 53.8469 176.648 53.355C176.604 52.8537 176.689 52.3496 176.895 51.8894C177.101 51.4293 177.42 51.028 177.824 50.7229C178.555 50.2392 179.419 49.9906 180.297 50.0109C181.147 50.0014 181.98 50.2498 182.683 50.7229C183.081 51.0324 183.394 51.435 183.596 51.8945C183.798 52.354 183.881 52.8559 183.837 53.355C183.875 53.8431 183.79 54.3327 183.59 54.7806C183.391 55.2284 183.083 55.6206 182.694 55.9225C181.998 56.4243 181.157 56.6893 180.297 56.6776Z" fill="#343434"/>
<path id="Vector_8" d="M180.297 50.8197C180.977 50.8092 181.644 51.009 182.204 51.3914C182.494 51.6251 182.722 51.9273 182.864 52.2702C183.007 52.6131 183.061 52.986 183.021 53.3547C183.053 53.7165 182.996 54.0808 182.853 54.4155C182.711 54.7503 182.488 55.0453 182.204 55.2749C181.65 55.6717 180.981 55.8799 180.297 55.8682C179.579 55.8834 178.875 55.6759 178.282 55.2749C177.998 55.0453 177.775 54.7503 177.632 54.4155C177.49 54.0808 177.432 53.7165 177.465 53.3547C177.425 52.986 177.479 52.6131 177.621 52.2702C177.764 51.9273 177.991 51.6251 178.282 51.3914C178.879 51.0019 179.582 50.8024 180.297 50.8197ZM180.297 49.2016C179.256 49.1824 178.233 49.4798 177.367 50.0538C176.849 50.4295 176.436 50.9297 176.167 51.5072C175.899 52.0848 175.783 52.7206 175.831 53.3547C175.788 53.9745 175.902 54.5951 176.163 55.1603C176.423 55.7254 176.822 56.2172 177.323 56.591C178.191 57.2006 179.234 57.5182 180.297 57.4971C181.329 57.5096 182.338 57.1918 183.173 56.591C183.669 56.2127 184.063 55.7199 184.321 55.1556C184.579 54.5914 184.694 53.973 184.655 53.3547C184.703 52.7255 184.59 52.0944 184.327 51.5195C184.065 50.9446 183.66 50.4443 183.151 50.0645C182.315 49.4875 181.317 49.1856 180.297 49.2016Z" fill="white"/>
<path id="Vector_9" d="M191.387 56.6126C190.571 56.6182 189.757 56.575 188.947 56.4832C188.268 56.4019 187.598 56.2648 186.942 56.0732C186.291 55.8627 185.654 55.6105 185.036 55.3181L184.567 55.1023V48.6298L185.755 49.2232C186.722 49.7069 187.737 50.0901 188.783 50.3666C189.664 50.6077 190.571 50.7382 191.485 50.755C191.82 50.7663 192.155 50.7226 192.476 50.6255C192.624 50.5856 192.757 50.503 192.857 50.3882C192.908 50.3113 192.935 50.2212 192.934 50.1293C192.936 50.0808 192.928 50.0324 192.909 49.9876C192.89 49.9427 192.861 49.9027 192.825 49.8704C192.556 49.6193 192.247 49.4151 191.91 49.2663C191.398 49.0182 190.733 48.7054 189.905 48.3386C189.077 47.9718 188.467 47.6266 187.857 47.2598C187.243 46.8914 186.682 46.4414 186.191 45.9222C185.717 45.3702 185.348 44.738 185.101 44.056C184.835 43.2744 184.706 42.4535 184.72 41.6288C184.683 40.3498 185.065 39.0933 185.809 38.0473C186.558 37.0611 187.58 36.3115 188.75 35.8898C190.052 35.4234 191.429 35.1967 192.814 35.221C194.042 35.2063 195.266 35.3588 196.452 35.6741C197.428 35.9355 198.382 36.2709 199.306 36.6773L200.014 36.9902L197.836 42.5241L197.051 42.1682C196.299 41.8218 195.519 41.5367 194.72 41.3159C194.06 41.1163 193.374 41.011 192.683 41.0031C192.407 40.9966 192.131 41.033 191.866 41.111C191.759 41.145 191.662 41.2043 191.583 41.2836C191.571 41.3296 191.571 41.3778 191.583 41.4238C191.583 41.4713 191.594 41.5182 191.615 41.5611C191.635 41.604 191.665 41.6418 191.703 41.6719C191.994 41.9225 192.32 42.1297 192.672 42.2868C193.206 42.5565 193.958 42.9017 194.916 43.3656C195.821 43.7563 196.679 44.2447 197.476 44.8219C198.218 45.3476 198.819 46.0435 199.23 46.8499C199.667 47.7467 199.88 48.7346 199.851 49.7302C199.851 50.9143 199.539 52.078 198.947 53.1067C198.281 54.2234 197.3 55.1233 196.125 55.6957C194.643 56.3742 193.018 56.6887 191.387 56.6126Z" fill="#343434"/>
<path id="Vector_10" d="M192.814 36.0087C193.968 35.9947 195.119 36.1362 196.234 36.4294C197.168 36.6831 198.082 37.004 198.969 37.3895L197.356 41.4025C196.564 41.0415 195.745 40.7421 194.905 40.5071C194.173 40.293 193.414 40.1805 192.65 40.1727C192.28 40.1624 191.91 40.221 191.561 40.3453C191.309 40.4237 191.085 40.5738 190.918 40.7768C190.789 40.9602 190.721 41.1788 190.722 41.4025C190.72 41.554 190.749 41.7044 190.81 41.8438C190.87 41.9832 190.959 42.1085 191.071 42.2115C191.421 42.5276 191.818 42.7895 192.247 42.9882L194.524 44.067C195.379 44.433 196.19 44.8925 196.942 45.437C197.582 45.8899 198.102 46.4895 198.457 47.1846C198.836 47.9676 199.019 48.8299 198.99 49.698C198.993 50.7423 198.719 51.769 198.195 52.6754C197.607 53.6534 196.744 54.4407 195.711 54.9408C194.351 55.5757 192.856 55.8754 191.354 55.8145C190.572 55.8184 189.79 55.7788 189.012 55.6959C188.381 55.6219 187.757 55.4919 187.149 55.3075C186.535 55.1096 185.935 54.8717 185.352 54.5956V49.9677C186.37 50.4795 187.44 50.8844 188.544 51.1759C189.492 51.4302 190.469 51.5679 191.452 51.5859C191.913 51.6057 192.375 51.5436 192.814 51.4025C193.103 51.304 193.359 51.1286 193.555 50.8955C193.715 50.6805 193.8 50.4187 193.794 50.1511C193.8 49.9934 193.771 49.8363 193.709 49.6909C193.647 49.5455 193.553 49.4154 193.435 49.3097C193.115 49.005 192.747 48.7537 192.345 48.5654C191.833 48.3172 191.158 47.9936 190.319 47.6161C189.647 47.3099 188.993 46.9678 188.358 46.5912C187.807 46.2636 187.304 45.8605 186.866 45.3938C186.452 44.927 186.134 44.3847 185.929 43.7973C185.687 43.1041 185.572 42.3732 185.591 41.6398C185.553 40.5323 185.878 39.4422 186.517 38.533C187.167 37.6653 188.061 37.0082 189.088 36.6452C190.315 36.1973 191.616 35.9814 192.923 36.0087M192.923 34.3906C191.437 34.3721 189.959 34.6244 188.565 35.1349C187.259 35.6199 186.124 36.4708 185.297 37.5837C184.38 38.7615 183.883 40.2065 183.881 41.6937C183.868 42.6108 184.016 43.5233 184.317 44.3906C184.59 45.1832 185.015 45.916 185.57 46.5481C186.117 47.1344 186.744 47.6427 187.432 48.0583C188.117 48.4549 188.822 48.815 189.546 49.1371L191.441 50.0217C190.61 49.9956 189.784 49.8761 188.979 49.6657C187.993 49.4038 187.037 49.0423 186.125 48.5869L183.75 47.4003V55.6959L184.687 56.1274C185.333 56.4334 185.999 56.6965 186.681 56.9149C187.393 57.1255 188.122 57.277 188.86 57.3679C189.702 57.4595 190.55 57.5027 191.398 57.4974C193.157 57.55 194.902 57.1798 196.485 56.4186C197.801 55.7804 198.896 54.7707 199.633 53.5168C200.299 52.3681 200.649 51.066 200.646 49.7412C200.672 48.6209 200.426 47.5109 199.927 46.505C199.463 45.586 198.778 44.7934 197.934 44.1964C197.085 43.5859 196.172 43.0687 195.21 42.6538L193.729 41.9634C193.986 42.0105 194.241 42.0717 194.491 42.1468C195.258 42.3511 196.006 42.6218 196.725 42.9559L198.293 43.6678L198.925 42.0821L200.537 38.0584L201.104 36.6236L199.688 35.9872C198.725 35.5555 197.73 35.1949 196.714 34.9084C195.457 34.5718 194.159 34.4085 192.857 34.423L192.923 34.3906Z" fill="white"/>
<path id="Vector_11" d="M205.461 56.602C204.522 56.612 203.593 56.4052 202.749 55.9979C201.912 55.5683 201.224 54.8993 200.777 54.0777C200.282 53.1208 200.039 52.0562 200.069 50.9817C200.021 50.1666 200.182 49.3528 200.536 48.6156C200.89 47.8783 201.426 47.2414 202.095 46.7638C202.515 46.4735 202.968 46.2344 203.446 46.0518L201.354 41.3269L202.03 40.9817C203.03 40.4777 204.097 40.1146 205.2 39.9029C206.469 39.6521 207.761 39.5328 209.056 39.547C210.87 39.4464 212.657 40.0195 214.067 41.1543C214.706 41.7339 215.206 42.4469 215.532 43.2418C215.858 44.0366 216.001 44.8933 215.951 45.7498V56.3431H211.028L210.298 54.9083C210.079 55.121 209.846 55.3192 209.601 55.5017C209.053 55.8996 208.431 56.1856 207.77 56.3431C207.016 56.534 206.239 56.6211 205.461 56.602ZM208.794 49.7303C208.26 49.6865 207.725 49.803 207.258 50.0648C207.161 50.1336 207.085 50.227 207.037 50.3352C206.989 50.4434 206.972 50.5624 206.986 50.6796C206.964 50.8722 207.019 51.0658 207.139 51.219C207.295 51.3249 207.483 51.3744 207.672 51.3593C207.871 51.369 208.069 51.3398 208.256 51.2731C208.443 51.2064 208.615 51.1037 208.762 50.9709C208.896 50.855 209.003 50.7102 209.072 50.5477C209.142 50.3851 209.174 50.2089 209.165 50.0324V49.7196L208.794 49.7303ZM208.097 44.7897C207.498 44.8035 206.904 44.9016 206.332 45.0809C205.739 45.2455 205.157 45.4473 204.59 45.685C205.508 45.4692 206.446 45.3427 207.389 45.3075H209.034C209.016 45.2202 208.97 45.1408 208.903 45.0809C208.792 44.9767 208.66 44.8969 208.515 44.8467C208.371 44.7966 208.217 44.7771 208.065 44.7897H208.097Z" fill="#343434"/>
<path id="Vector_12" d="M209.056 40.3558C210.669 40.2606 212.26 40.7602 213.522 41.7582C214.073 42.2631 214.504 42.8833 214.783 43.5738C215.062 44.2642 215.182 45.0074 215.134 45.7496V55.5338H211.529L210.526 53.5597H210.428C210.045 54.044 209.603 54.4789 209.11 54.8542C208.65 55.185 208.128 55.4233 207.574 55.5554C206.884 55.7298 206.173 55.8097 205.461 55.7927C204.65 55.8043 203.848 55.6269 203.119 55.2749C202.426 54.915 201.858 54.3592 201.485 53.6784C201.06 52.8434 200.854 51.916 200.886 50.9815C200.839 50.2961 200.968 49.6102 201.262 48.9877C201.555 48.3652 202.003 47.8264 202.563 47.4216C204.028 46.5469 205.711 46.0948 207.422 46.1163L209.927 46.0408V45.8251C209.956 45.5674 209.925 45.3068 209.839 45.0623C209.752 44.8177 209.611 44.5955 209.426 44.4119C209.054 44.1075 208.579 43.9534 208.097 43.9804C207.421 43.9943 206.749 44.1032 206.104 44.304C205.358 44.5095 204.629 44.7728 203.925 45.0915L202.411 41.6935C203.344 41.2275 204.337 40.89 205.363 40.6902C206.579 40.4542 207.817 40.3421 209.056 40.3558ZM207.672 52.222C208.266 52.2318 208.842 52.02 209.285 51.6287C209.504 51.4358 209.678 51.1977 209.794 50.9313C209.911 50.6649 209.968 50.3764 209.96 50.0861V48.9211H208.762C208.054 48.8852 207.351 49.0619 206.746 49.4281C206.554 49.574 206.401 49.7644 206.3 49.9826C206.2 50.2007 206.155 50.44 206.169 50.6794C206.161 50.8776 206.193 51.0754 206.264 51.2608C206.336 51.4462 206.444 51.6154 206.583 51.7582C206.889 52.006 207.277 52.1328 207.672 52.1142M209.056 38.6838C207.703 38.6734 206.353 38.7963 205.025 39.0505C203.855 39.2814 202.723 39.6697 201.659 40.2048L200.298 40.906L200.918 42.2868L202.378 45.5985C202.118 45.7292 201.867 45.8769 201.627 46.0408C200.849 46.5929 200.224 47.3298 199.809 48.1838C199.394 49.0377 199.202 49.9812 199.252 50.9276C199.221 52.1329 199.494 53.3268 200.047 54.4011C200.575 55.3618 201.379 56.1462 202.356 56.6557C203.321 57.128 204.385 57.3683 205.461 57.3569C206.316 57.3735 207.17 57.2755 207.999 57.0656C208.731 56.8861 209.422 56.5713 210.036 56.1379V56.2134L210.494 57.098H216.779V45.6956C216.831 44.7213 216.662 43.7478 216.285 42.8463C215.908 41.9448 215.333 41.1381 214.601 40.4853C213.046 39.2245 211.073 38.5823 209.067 38.6838H209.056Z" fill="white"/>
<path id="Vector_13" d="M224.688 34.2393H217.858V56.3428H224.688V34.2393Z" fill="#343434"/>
<path id="Vector_14" d="M223.871 35.0488V55.545H218.675V35.0488H223.871ZM225.505 33.4307H217.041V57.1631H225.494V33.4307H225.505Z" fill="white"/>
<path id="Vector_15" d="M234.743 56.6021C233.245 56.6252 231.759 56.331 230.386 55.7391C229.055 55.148 227.94 54.1648 227.194 52.9236C226.38 51.4752 225.985 49.8332 226.05 48.1771C225.991 46.5216 226.342 44.8771 227.074 43.3875C227.72 42.1305 228.754 41.1102 230.026 40.4748C231.329 39.847 232.76 39.5258 234.209 39.5363C235.635 39.5028 237.051 39.7905 238.349 40.3777C239.54 40.9257 240.528 41.8316 241.17 42.9667C241.851 44.26 242.185 45.7051 242.14 47.1631V50.3238H241.159V55.2537L240.723 55.4802C239.901 55.8986 239.025 56.2035 238.12 56.3864C237.004 56.5657 235.873 56.638 234.743 56.6021ZM233.12 50.3238C233.218 50.521 233.355 50.6969 233.523 50.8416C234.051 51.2504 234.718 51.4434 235.386 51.381C236.188 51.3895 236.988 51.3063 237.771 51.1329C238.555 50.9369 239.317 50.6659 240.048 50.3238H233.12ZM235.669 45.4694C235.575 45.257 235.419 45.0768 235.222 44.9516C234.996 44.8057 234.729 44.734 234.46 44.7467C234.281 44.7397 234.104 44.7685 233.937 44.8316C233.77 44.8946 233.618 44.9905 233.49 45.1134C233.367 45.2174 233.273 45.3512 233.218 45.5018L235.669 45.4694Z" fill="#343434"/>
<path id="Vector_16" d="M234.209 40.3561C235.514 40.3235 236.809 40.5816 238 41.1113C239.039 41.5936 239.9 42.3857 240.462 43.3766C241.075 44.5475 241.372 45.8557 241.323 47.1738V49.4608H232.03C232.04 49.8231 232.123 50.1799 232.274 50.5098C232.426 50.8398 232.643 51.136 232.913 51.3809C233.591 51.9312 234.457 52.2016 235.331 52.1361C236.2 52.1472 237.067 52.053 237.913 51.8556C238.75 51.655 239.564 51.3694 240.342 51.0034V54.7035C239.59 55.0905 238.787 55.3701 237.956 55.5341C236.878 55.7263 235.784 55.813 234.688 55.793C233.292 55.8199 231.906 55.5476 230.625 54.9948C229.445 54.4724 228.456 53.6022 227.793 52.5028C227.061 51.1839 226.706 49.6917 226.769 48.1879C226.708 46.6642 227.026 45.149 227.695 43.7758C228.263 42.6662 229.176 41.7663 230.298 41.2083C231.513 40.6264 232.849 40.338 234.198 40.3669M232.128 46.2353H236.595C236.592 45.8214 236.499 45.4129 236.322 45.0379C236.166 44.6877 235.908 44.3912 235.582 44.1857C235.225 43.9589 234.807 43.8459 234.383 43.8621C233.814 43.85 233.263 44.0591 232.847 44.4446C232.387 44.9295 232.13 45.5697 232.128 46.2353ZM234.198 38.7488C232.593 38.723 231.003 39.0703 229.558 39.7628C228.153 40.4767 227.01 41.6085 226.29 42.9991C225.508 44.6084 225.135 46.3819 225.2 48.1663C225.136 49.9708 225.573 51.7581 226.464 53.3335C227.294 54.714 228.534 55.8067 230.015 56.4619C231.509 57.1066 233.125 57.4266 234.754 57.4004C235.955 57.4204 237.156 57.3228 238.338 57.1091C239.317 56.9173 240.264 56.5867 241.148 56.1274L242.031 55.6744V51.0681H243.011V47.163C243.053 45.5674 242.677 43.9882 241.922 42.5784C241.194 41.2974 240.083 40.272 238.741 39.6442C237.329 39.0093 235.792 38.696 234.242 38.7272L234.198 38.7488Z" fill="white"/>
</g>
<defs>
<clipPath id="clip0_4340_20601">
<rect width="243" height="60" fill="white"/>
</clipPath>
</defs>
</svg>
